<mxfile host="Electron" modified="2024-05-01T17:53:23.992Z" agent="Mozilla/5.0 (Windows NT 10.0; Win64; x64) AppleWebKit/537.36 (KHTML, like Gecko) draw.io/21.2.8 Chrome/112.0.5615.165 Electron/24.2.0 Safari/537.36" etag="oDlX2Zs7oyhnn39pI4l4" version="21.2.8" type="device">
  <diagram name="PÃ¡gina-1" id="PqbBbr1MRu_UEavx3Vjl">
    <mxGraphModel dx="838" dy="2134" grid="1" gridSize="10" guides="1" tooltips="1" connect="1" arrows="1" fold="1" page="1" pageScale="1" pageWidth="827" pageHeight="1169" math="0" shadow="0">
      <root>
        <mxCell id="0" />
        <mxCell id="1" parent="0" />
        <mxCell id="Ilu4a4xLz7-hr2n1zSsy-30" style="edgeStyle=orthogonalEdgeStyle;rounded=0;orthogonalLoop=1;jettySize=auto;html=1;entryX=0;entryY=0.5;entryDx=0;entryDy=0;exitX=0.5;exitY=0;exitDx=0;exitDy=0;" parent="1" source="Ilu4a4xLz7-hr2n1zSsy-1" target="Ilu4a4xLz7-hr2n1zSsy-29" edge="1">
          <mxGeometry relative="1" as="geometry" />
        </mxCell>
        <mxCell id="Ilu4a4xLz7-hr2n1zSsy-54" style="edgeStyle=orthogonalEdgeStyle;rounded=0;orthogonalLoop=1;jettySize=auto;html=1;" parent="1" source="Ilu4a4xLz7-hr2n1zSsy-1" target="Ilu4a4xLz7-hr2n1zSsy-31" edge="1">
          <mxGeometry relative="1" as="geometry" />
        </mxCell>
        <mxCell id="Ilu4a4xLz7-hr2n1zSsy-71" style="edgeStyle=orthogonalEdgeStyle;rounded=0;orthogonalLoop=1;jettySize=auto;html=1;entryX=0;entryY=0.5;entryDx=0;entryDy=0;exitX=0;exitY=0.5;exitDx=0;exitDy=0;" parent="1" source="Ilu4a4xLz7-hr2n1zSsy-1" target="Ilu4a4xLz7-hr2n1zSsy-66" edge="1">
          <mxGeometry relative="1" as="geometry" />
        </mxCell>
        <mxCell id="Ilu4a4xLz7-hr2n1zSsy-1" value="t0" style="rounded=0;whiteSpace=wrap;html=1;" parent="1" vertex="1">
          <mxGeometry x="40" y="200" width="40" height="40" as="geometry" />
        </mxCell>
        <mxCell id="Ilu4a4xLz7-hr2n1zSsy-49" style="edgeStyle=orthogonalEdgeStyle;rounded=0;orthogonalLoop=1;jettySize=auto;html=1;entryX=0;entryY=0.5;entryDx=0;entryDy=0;exitX=0.5;exitY=0;exitDx=0;exitDy=0;" parent="1" source="Ilu4a4xLz7-hr2n1zSsy-2" target="Ilu4a4xLz7-hr2n1zSsy-28" edge="1">
          <mxGeometry relative="1" as="geometry" />
        </mxCell>
        <mxCell id="Ilu4a4xLz7-hr2n1zSsy-55" style="edgeStyle=orthogonalEdgeStyle;rounded=0;orthogonalLoop=1;jettySize=auto;html=1;entryX=0.5;entryY=0;entryDx=0;entryDy=0;" parent="1" source="Ilu4a4xLz7-hr2n1zSsy-2" target="Ilu4a4xLz7-hr2n1zSsy-32" edge="1">
          <mxGeometry relative="1" as="geometry" />
        </mxCell>
        <mxCell id="Ilu4a4xLz7-hr2n1zSsy-2" value="t1" style="rounded=0;whiteSpace=wrap;html=1;" parent="1" vertex="1">
          <mxGeometry x="80" y="200" width="40" height="40" as="geometry" />
        </mxCell>
        <mxCell id="Ilu4a4xLz7-hr2n1zSsy-50" style="edgeStyle=orthogonalEdgeStyle;rounded=0;orthogonalLoop=1;jettySize=auto;html=1;entryX=0;entryY=0.5;entryDx=0;entryDy=0;exitX=0.5;exitY=0;exitDx=0;exitDy=0;" parent="1" source="Ilu4a4xLz7-hr2n1zSsy-3" target="Ilu4a4xLz7-hr2n1zSsy-27" edge="1">
          <mxGeometry relative="1" as="geometry" />
        </mxCell>
        <mxCell id="Ilu4a4xLz7-hr2n1zSsy-56" style="edgeStyle=orthogonalEdgeStyle;rounded=0;orthogonalLoop=1;jettySize=auto;html=1;entryX=0.5;entryY=0;entryDx=0;entryDy=0;" parent="1" source="Ilu4a4xLz7-hr2n1zSsy-3" target="Ilu4a4xLz7-hr2n1zSsy-33" edge="1">
          <mxGeometry relative="1" as="geometry" />
        </mxCell>
        <mxCell id="Ilu4a4xLz7-hr2n1zSsy-3" value="t2" style="rounded=0;whiteSpace=wrap;html=1;" parent="1" vertex="1">
          <mxGeometry x="120" y="200" width="40" height="40" as="geometry" />
        </mxCell>
        <mxCell id="Ilu4a4xLz7-hr2n1zSsy-51" style="edgeStyle=orthogonalEdgeStyle;rounded=0;orthogonalLoop=1;jettySize=auto;html=1;entryX=0;entryY=0.5;entryDx=0;entryDy=0;exitX=0.5;exitY=0;exitDx=0;exitDy=0;" parent="1" source="Ilu4a4xLz7-hr2n1zSsy-4" target="Ilu4a4xLz7-hr2n1zSsy-26" edge="1">
          <mxGeometry relative="1" as="geometry" />
        </mxCell>
        <mxCell id="Ilu4a4xLz7-hr2n1zSsy-65" style="edgeStyle=orthogonalEdgeStyle;rounded=0;orthogonalLoop=1;jettySize=auto;html=1;entryX=0.5;entryY=0;entryDx=0;entryDy=0;" parent="1" source="Ilu4a4xLz7-hr2n1zSsy-4" target="Ilu4a4xLz7-hr2n1zSsy-34" edge="1">
          <mxGeometry relative="1" as="geometry" />
        </mxCell>
        <mxCell id="Ilu4a4xLz7-hr2n1zSsy-4" value="t3" style="rounded=0;whiteSpace=wrap;html=1;" parent="1" vertex="1">
          <mxGeometry x="160" y="200" width="40" height="40" as="geometry" />
        </mxCell>
        <mxCell id="Ilu4a4xLz7-hr2n1zSsy-52" style="edgeStyle=orthogonalEdgeStyle;rounded=0;orthogonalLoop=1;jettySize=auto;html=1;entryX=0;entryY=0.5;entryDx=0;entryDy=0;exitX=0.5;exitY=0;exitDx=0;exitDy=0;" parent="1" source="Ilu4a4xLz7-hr2n1zSsy-5" target="Ilu4a4xLz7-hr2n1zSsy-25" edge="1">
          <mxGeometry relative="1" as="geometry" />
        </mxCell>
        <mxCell id="Ilu4a4xLz7-hr2n1zSsy-5" value="..." style="rounded=0;whiteSpace=wrap;html=1;" parent="1" vertex="1">
          <mxGeometry x="200" y="200" width="40" height="40" as="geometry" />
        </mxCell>
        <mxCell id="Ilu4a4xLz7-hr2n1zSsy-53" style="edgeStyle=orthogonalEdgeStyle;rounded=0;orthogonalLoop=1;jettySize=auto;html=1;entryX=0;entryY=0.5;entryDx=0;entryDy=0;exitX=0.5;exitY=0;exitDx=0;exitDy=0;" parent="1" source="Ilu4a4xLz7-hr2n1zSsy-6" target="Ilu4a4xLz7-hr2n1zSsy-21" edge="1">
          <mxGeometry relative="1" as="geometry" />
        </mxCell>
        <mxCell id="Ilu4a4xLz7-hr2n1zSsy-57" style="edgeStyle=orthogonalEdgeStyle;rounded=0;orthogonalLoop=1;jettySize=auto;html=1;entryX=0.5;entryY=0;entryDx=0;entryDy=0;" parent="1" source="Ilu4a4xLz7-hr2n1zSsy-6" target="Ilu4a4xLz7-hr2n1zSsy-36" edge="1">
          <mxGeometry relative="1" as="geometry" />
        </mxCell>
        <mxCell id="Ilu4a4xLz7-hr2n1zSsy-6" value="t31" style="rounded=0;whiteSpace=wrap;html=1;" parent="1" vertex="1">
          <mxGeometry x="240" y="200" width="40" height="40" as="geometry" />
        </mxCell>
        <mxCell id="Ilu4a4xLz7-hr2n1zSsy-21" value="" style="rounded=0;whiteSpace=wrap;html=1;" parent="1" vertex="1">
          <mxGeometry x="400" y="40" width="40" height="40" as="geometry" />
        </mxCell>
        <mxCell id="Ilu4a4xLz7-hr2n1zSsy-25" value="" style="rounded=0;whiteSpace=wrap;html=1;" parent="1" vertex="1">
          <mxGeometry x="400" width="40" height="40" as="geometry" />
        </mxCell>
        <mxCell id="Ilu4a4xLz7-hr2n1zSsy-26" value="" style="rounded=0;whiteSpace=wrap;html=1;" parent="1" vertex="1">
          <mxGeometry x="400" y="-40" width="40" height="40" as="geometry" />
        </mxCell>
        <mxCell id="Ilu4a4xLz7-hr2n1zSsy-27" value="" style="rounded=0;whiteSpace=wrap;html=1;" parent="1" vertex="1">
          <mxGeometry x="400" y="-80" width="40" height="40" as="geometry" />
        </mxCell>
        <mxCell id="Ilu4a4xLz7-hr2n1zSsy-28" value="" style="rounded=0;whiteSpace=wrap;html=1;" parent="1" vertex="1">
          <mxGeometry x="400" y="-120" width="40" height="40" as="geometry" />
        </mxCell>
        <mxCell id="Ilu4a4xLz7-hr2n1zSsy-29" value="" style="rounded=0;whiteSpace=wrap;html=1;" parent="1" vertex="1">
          <mxGeometry x="400" y="-160" width="40" height="40" as="geometry" />
        </mxCell>
        <mxCell id="Ilu4a4xLz7-hr2n1zSsy-67" style="edgeStyle=orthogonalEdgeStyle;rounded=0;orthogonalLoop=1;jettySize=auto;html=1;entryX=0.5;entryY=0;entryDx=0;entryDy=0;" parent="1" source="Ilu4a4xLz7-hr2n1zSsy-31" target="Ilu4a4xLz7-hr2n1zSsy-66" edge="1">
          <mxGeometry relative="1" as="geometry" />
        </mxCell>
        <mxCell id="Ilu4a4xLz7-hr2n1zSsy-31" value="0" style="rounded=0;whiteSpace=wrap;html=1;fillColor=#CCCCCC;" parent="1" vertex="1">
          <mxGeometry x="40" y="280" width="40" height="40" as="geometry" />
        </mxCell>
        <mxCell id="Ilu4a4xLz7-hr2n1zSsy-32" value="1" style="rounded=0;whiteSpace=wrap;html=1;fillColor=#CCCCCC;" parent="1" vertex="1">
          <mxGeometry x="80" y="280" width="40" height="40" as="geometry" />
        </mxCell>
        <mxCell id="Ilu4a4xLz7-hr2n1zSsy-33" value="2" style="rounded=0;whiteSpace=wrap;html=1;fillColor=#CCCCCC;" parent="1" vertex="1">
          <mxGeometry x="120" y="280" width="40" height="40" as="geometry" />
        </mxCell>
        <mxCell id="Ilu4a4xLz7-hr2n1zSsy-34" value="3" style="rounded=0;whiteSpace=wrap;html=1;fillColor=#CCCCCC;" parent="1" vertex="1">
          <mxGeometry x="160" y="280" width="40" height="40" as="geometry" />
        </mxCell>
        <mxCell id="Ilu4a4xLz7-hr2n1zSsy-35" value="..." style="rounded=0;whiteSpace=wrap;html=1;fillColor=#CCCCCC;" parent="1" vertex="1">
          <mxGeometry x="200" y="280" width="40" height="40" as="geometry" />
        </mxCell>
        <mxCell id="Ilu4a4xLz7-hr2n1zSsy-36" value="5" style="rounded=0;whiteSpace=wrap;html=1;fillColor=#CCCCCC;" parent="1" vertex="1">
          <mxGeometry x="240" y="280" width="40" height="40" as="geometry" />
        </mxCell>
        <mxCell id="Ilu4a4xLz7-hr2n1zSsy-37" value="..." style="rounded=0;whiteSpace=wrap;html=1;fillColor=#CCCCCC;" parent="1" vertex="1">
          <mxGeometry x="280" y="280" width="40" height="40" as="geometry" />
        </mxCell>
        <mxCell id="Ilu4a4xLz7-hr2n1zSsy-38" value="255" style="rounded=0;whiteSpace=wrap;html=1;fillColor=#CCCCCC;" parent="1" vertex="1">
          <mxGeometry x="320" y="280" width="40" height="40" as="geometry" />
        </mxCell>
        <mxCell id="Ilu4a4xLz7-hr2n1zSsy-59" style="edgeStyle=orthogonalEdgeStyle;rounded=0;orthogonalLoop=1;jettySize=auto;html=1;entryX=0.5;entryY=0;entryDx=0;entryDy=0;" parent="1" source="Ilu4a4xLz7-hr2n1zSsy-58" target="Ilu4a4xLz7-hr2n1zSsy-38" edge="1">
          <mxGeometry relative="1" as="geometry" />
        </mxCell>
        <mxCell id="Ilu4a4xLz7-hr2n1zSsy-64" style="edgeStyle=orthogonalEdgeStyle;rounded=0;orthogonalLoop=1;jettySize=auto;html=1;entryX=0;entryY=0.5;entryDx=0;entryDy=0;exitX=0.5;exitY=0;exitDx=0;exitDy=0;" parent="1" source="Ilu4a4xLz7-hr2n1zSsy-58" target="Ilu4a4xLz7-hr2n1zSsy-63" edge="1">
          <mxGeometry relative="1" as="geometry" />
        </mxCell>
        <mxCell id="Ilu4a4xLz7-hr2n1zSsy-58" value="t255" style="rounded=0;whiteSpace=wrap;html=1;" parent="1" vertex="1">
          <mxGeometry x="320" y="200" width="40" height="40" as="geometry" />
        </mxCell>
        <mxCell id="Ilu4a4xLz7-hr2n1zSsy-60" value="..." style="rounded=0;whiteSpace=wrap;html=1;" parent="1" vertex="1">
          <mxGeometry x="280" y="200" width="40" height="40" as="geometry" />
        </mxCell>
        <mxCell id="Ilu4a4xLz7-hr2n1zSsy-62" value="" style="rounded=0;whiteSpace=wrap;html=1;" parent="1" vertex="1">
          <mxGeometry x="400" y="80" width="40" height="40" as="geometry" />
        </mxCell>
        <mxCell id="Ilu4a4xLz7-hr2n1zSsy-63" value="" style="rounded=0;whiteSpace=wrap;html=1;" parent="1" vertex="1">
          <mxGeometry x="400" y="120" width="40" height="40" as="geometry" />
        </mxCell>
        <mxCell id="Ilu4a4xLz7-hr2n1zSsy-66" value="sum" style="rounded=0;whiteSpace=wrap;html=1;" parent="1" vertex="1">
          <mxGeometry x="40" y="360" width="40" height="40" as="geometry" />
        </mxCell>
        <mxCell id="-Knn0quZr7BRfP1s_6ld-1" value="3,0" style="rounded=0;whiteSpace=wrap;html=1;" parent="1" vertex="1">
          <mxGeometry x="40" y="-240" width="40" height="40" as="geometry" />
        </mxCell>
        <mxCell id="-Knn0quZr7BRfP1s_6ld-2" value="2,0" style="rounded=0;whiteSpace=wrap;html=1;" parent="1" vertex="1">
          <mxGeometry x="40" y="-280" width="40" height="40" as="geometry" />
        </mxCell>
        <mxCell id="-Knn0quZr7BRfP1s_6ld-3" value="1,0" style="rounded=0;whiteSpace=wrap;html=1;" parent="1" vertex="1">
          <mxGeometry x="40" y="-320" width="40" height="40" as="geometry" />
        </mxCell>
        <mxCell id="-Knn0quZr7BRfP1s_6ld-4" value="0,0" style="rounded=0;whiteSpace=wrap;html=1;" parent="1" vertex="1">
          <mxGeometry x="40" y="-360" width="40" height="40" as="geometry" />
        </mxCell>
        <mxCell id="-Knn0quZr7BRfP1s_6ld-5" value="3,1" style="rounded=0;whiteSpace=wrap;html=1;" parent="1" vertex="1">
          <mxGeometry x="80" y="-240" width="40" height="40" as="geometry" />
        </mxCell>
        <mxCell id="-Knn0quZr7BRfP1s_6ld-6" value="2,1" style="rounded=0;whiteSpace=wrap;html=1;" parent="1" vertex="1">
          <mxGeometry x="80" y="-280" width="40" height="40" as="geometry" />
        </mxCell>
        <mxCell id="-Knn0quZr7BRfP1s_6ld-7" value="1,1" style="rounded=0;whiteSpace=wrap;html=1;" parent="1" vertex="1">
          <mxGeometry x="80" y="-320" width="40" height="40" as="geometry" />
        </mxCell>
        <mxCell id="-Knn0quZr7BRfP1s_6ld-8" value="0,1" style="rounded=0;whiteSpace=wrap;html=1;" parent="1" vertex="1">
          <mxGeometry x="80" y="-360" width="40" height="40" as="geometry" />
        </mxCell>
        <mxCell id="-Knn0quZr7BRfP1s_6ld-9" value="3,2" style="rounded=0;whiteSpace=wrap;html=1;" parent="1" vertex="1">
          <mxGeometry x="120" y="-240" width="40" height="40" as="geometry" />
        </mxCell>
        <mxCell id="-Knn0quZr7BRfP1s_6ld-10" value="2,2" style="rounded=0;whiteSpace=wrap;html=1;" parent="1" vertex="1">
          <mxGeometry x="120" y="-280" width="40" height="40" as="geometry" />
        </mxCell>
        <mxCell id="-Knn0quZr7BRfP1s_6ld-11" value="1,2" style="rounded=0;whiteSpace=wrap;html=1;" parent="1" vertex="1">
          <mxGeometry x="120" y="-320" width="40" height="40" as="geometry" />
        </mxCell>
        <mxCell id="-Knn0quZr7BRfP1s_6ld-12" value="0,2" style="rounded=0;whiteSpace=wrap;html=1;" parent="1" vertex="1">
          <mxGeometry x="120" y="-360" width="40" height="40" as="geometry" />
        </mxCell>
        <mxCell id="-Knn0quZr7BRfP1s_6ld-24" style="edgeStyle=orthogonalEdgeStyle;rounded=0;orthogonalLoop=1;jettySize=auto;html=1;entryX=0;entryY=0.5;entryDx=0;entryDy=0;" parent="1" source="-Knn0quZr7BRfP1s_6ld-13" target="-Knn0quZr7BRfP1s_6ld-21" edge="1">
          <mxGeometry relative="1" as="geometry" />
        </mxCell>
        <mxCell id="-Knn0quZr7BRfP1s_6ld-13" value="3,3" style="rounded=0;whiteSpace=wrap;html=1;" parent="1" vertex="1">
          <mxGeometry x="160" y="-240" width="40" height="40" as="geometry" />
        </mxCell>
        <mxCell id="-Knn0quZr7BRfP1s_6ld-23" style="edgeStyle=orthogonalEdgeStyle;rounded=0;orthogonalLoop=1;jettySize=auto;html=1;entryX=0;entryY=0.5;entryDx=0;entryDy=0;" parent="1" source="-Knn0quZr7BRfP1s_6ld-14" target="-Knn0quZr7BRfP1s_6ld-20" edge="1">
          <mxGeometry relative="1" as="geometry" />
        </mxCell>
        <mxCell id="-Knn0quZr7BRfP1s_6ld-14" value="2,3" style="rounded=0;whiteSpace=wrap;html=1;" parent="1" vertex="1">
          <mxGeometry x="160" y="-280" width="40" height="40" as="geometry" />
        </mxCell>
        <mxCell id="-Knn0quZr7BRfP1s_6ld-22" style="edgeStyle=orthogonalEdgeStyle;rounded=0;orthogonalLoop=1;jettySize=auto;html=1;entryX=0;entryY=0.5;entryDx=0;entryDy=0;" parent="1" source="-Knn0quZr7BRfP1s_6ld-15" target="-Knn0quZr7BRfP1s_6ld-19" edge="1">
          <mxGeometry relative="1" as="geometry" />
        </mxCell>
        <mxCell id="-Knn0quZr7BRfP1s_6ld-15" value="1,3" style="rounded=0;whiteSpace=wrap;html=1;" parent="1" vertex="1">
          <mxGeometry x="160" y="-320" width="40" height="40" as="geometry" />
        </mxCell>
        <mxCell id="-Knn0quZr7BRfP1s_6ld-18" style="edgeStyle=orthogonalEdgeStyle;rounded=0;orthogonalLoop=1;jettySize=auto;html=1;entryX=0;entryY=0.5;entryDx=0;entryDy=0;" parent="1" source="-Knn0quZr7BRfP1s_6ld-16" target="-Knn0quZr7BRfP1s_6ld-17" edge="1">
          <mxGeometry relative="1" as="geometry" />
        </mxCell>
        <mxCell id="-Knn0quZr7BRfP1s_6ld-16" value="0,3" style="rounded=0;whiteSpace=wrap;html=1;" parent="1" vertex="1">
          <mxGeometry x="160" y="-360" width="40" height="40" as="geometry" />
        </mxCell>
        <mxCell id="-Knn0quZr7BRfP1s_6ld-17" value="0" style="rounded=0;whiteSpace=wrap;html=1;fillColor=#CCCCCC;" parent="1" vertex="1">
          <mxGeometry x="240" y="-360" width="40" height="40" as="geometry" />
        </mxCell>
        <mxCell id="-Knn0quZr7BRfP1s_6ld-19" value="1" style="rounded=0;whiteSpace=wrap;html=1;fillColor=#CCCCCC;" parent="1" vertex="1">
          <mxGeometry x="240" y="-320" width="40" height="40" as="geometry" />
        </mxCell>
        <mxCell id="-Knn0quZr7BRfP1s_6ld-20" value="2" style="rounded=0;whiteSpace=wrap;html=1;fillColor=#CCCCCC;" parent="1" vertex="1">
          <mxGeometry x="240" y="-280" width="40" height="40" as="geometry" />
        </mxCell>
        <mxCell id="-Knn0quZr7BRfP1s_6ld-21" value="3" style="rounded=0;whiteSpace=wrap;html=1;fillColor=#CCCCCC;" parent="1" vertex="1">
          <mxGeometry x="240" y="-240" width="40" height="40" as="geometry" />
        </mxCell>
      </root>
    </mxGraphModel>
  </diagram>
</mxfile>
